<?xml version="1.0" encoding="UTF-8"?>
<!DOCTYPE svg PUBLIC "-//W3C//DTD SVG 1.1//EN" "http://www.w3.org/Graphics/SVG/1.1/DTD/svg11.dtd">
<!-- Creator: CorelDRAW -->
<svg xmlns="http://www.w3.org/2000/svg" xml:space="preserve" width="8.5in" height="11in" version="1.1" style="shape-rendering:geometricPrecision; text-rendering:geometricPrecision; image-rendering:optimizeQuality; fill-rule:evenodd; clip-rule:evenodd"
viewBox="0 0 8500 11000"
 xmlns:xlink="http://www.w3.org/1999/xlink">
 <defs>
  <style type="text/css">
   <![CDATA[
    .fil0 {fill:#34368F}
   ]]>
  </style>
 </defs>
 <g id="Layer_x0020_1">
  <metadata id="CorelCorpID_0Corel-Layer"/>
  <g id="Bank_x0020_BPD_x0020_DIY_x0020_Logo.cdr">
   <path class="fil0" d="M4686 5700c-56,0 -37,0 -67,-21 0,-54 24,-117 26,-176 34,0 38,-6 65,-13 13,-3 23,-3 35,-6 25,-7 36,-24 80,20 29,28 27,32 27,76 0,81 -88,120 -166,120zm-26 -265c0,-42 12,-85 19,-127 16,-101 29,-91 116,-91 83,0 104,75 23,152 -11,10 -16,12 -28,19 -33,17 -92,44 -130,47zm-161 -244c16,24 37,20 37,47 0,50 -14,88 -22,134 -3,21 -5,45 -11,67l-35 204c-13,97 -62,53 -62,98 0,21 25,26 47,26 105,0 299,8 393,-11 15,-3 27,-9 42,-15 126,-46 172,-194 93,-268 -11,-11 -27,-22 -41,-27l-56 -16c35,-8 72,-33 97,-53 61,-52 79,-150 -4,-196 -74,-41 -335,-26 -436,-26 -27,0 -37,14 -42,36z"/>
   <path class="fil0" d="M397 5700c-68,0 -74,-8 -60,-80l18 -117 105 -21c12,-3 20,-8 29,-7 62,6 118,125 26,192 -33,24 -77,33 -118,33zm-32 -265c13,-25 19,-137 38,-186 16,-40 47,-32 103,-32 87,0 111,94 -6,170 -29,19 -99,47 -135,48zm-155 -244c41,62 49,-27 15,177l-47 274c-10,96 -62,55 -62,99 0,21 26,26 47,26 106,0 299,8 393,-11 15,-3 27,-9 43,-15 141,-52 198,-255 23,-302 -2,-1 -12,-3 -13,-4l-15 -5c37,-9 81,-38 105,-62 0,0 1,-1 2,-2 22,-23 40,-55 42,-88 5,-90 -91,-123 -180,-123l-312 0c-26,0 -36,14 -41,36z"/>
   <path class="fil0" d="M6956 5700c-99,0 -107,34 -43,-277 5,-25 27,-171 34,-183 22,-37 157,-34 206,29 107,134 4,431 -197,431zm-208 -514c0,28 36,31 36,47l-70 417c-18,93 -60,38 -60,107 19,4 18,10 37,10 190,0 332,20 489,-51 89,-40 139,-133 168,-221 22,-65 16,-142 -10,-203l-32 -51c-49,-56 -129,-86 -220,-86l-291 0c-25,0 -47,6 -47,31z"/>
   <path class="fil0" d="M5948 5700c-116,0 -80,1 -35,-274 7,-41 16,-77 23,-123 12,-87 18,-86 111,-86 21,0 45,10 61,17 23,11 30,18 47,36 97,105 29,430 -207,430zm-202 -514c8,16 2,11 17,24 27,22 32,7 13,89 -16,65 -52,365 -77,396 -18,23 -42,14 -42,52 0,18 23,20 42,20 163,0 385,20 505,-66 75,-53 109,-101 141,-191 41,-117 11,-279 -125,-331 -97,-37 -307,-24 -422,-24 -34,0 -41,9 -52,31z"/>
   <path class="fil0" d="M2157 5186c0,20 23,29 36,36l-53 347c-4,20 -9,50 -13,70 -4,30 -4,46 -22,61 -11,10 -41,24 -41,41 0,17 18,26 36,26l171 0c22,0 37,-9 37,-31 0,-48 -59,17 -25,-123 1,-7 5,-24 7,-35l3 -27c6,-27 9,-22 39,-40 15,-9 25,-15 38,-24l54 97c12,25 45,86 45,111 0,14 -29,13 -37,46 11,21 16,26 47,26 168,0 192,18 192,-51 -33,-9 -36,-41 -48,-72 -13,-33 -23,-56 -38,-86l-68 -119c-12,-21 -16,-15 -22,-40 21,-6 78,-61 100,-81l25 -22c49,-41 24,-39 93,-79 47,-26 24,-62 -11,-62 -45,0 -173,-17 -166,36 16,29 16,14 31,36 -8,31 -31,42 -53,61 -5,5 -7,8 -13,13l-188 144 23 -153c15,-98 70,-74 65,-111 -8,-16 -11,-26 -36,-26 -62,0 -208,-16 -208,31z"/>
   <path class="fil0" d="M1487 5191c45,67 47,-12 32,115 -4,31 -6,39 -12,66l-48 274c-5,29 0,42 -20,58 -22,18 -32,6 -40,43 22,33 43,20 140,20 27,0 37,-14 42,-36 -7,-8 -13,-12 -22,-20 -36,-29 -17,-62 -6,-127l43 -284 181 333c30,56 52,134 100,134 108,0 70,-37 108,-203l60 -329c14,-39 55,-9 39,-75 -25,-6 -166,-22 -166,26 0,29 37,14 37,67l-47 296c-16,-11 -7,-7 -27,-50 -26,-54 -53,-117 -83,-167l-93 -151c-25,-39 -109,-26 -176,-26 -27,0 -37,14 -42,36z"/>
   <path class="fil0" d="M5299 5466c5,-23 8,-46 11,-72 3,-22 8,-44 13,-70 18,-111 13,-107 111,-107 16,0 49,17 58,25 55,51 7,147 -46,179 -25,16 -30,21 -62,32 -34,11 -41,13 -85,13zm-151 -285c0,39 31,24 36,58 1,12 0,7 -1,17l-65 388c-10,80 -52,54 -63,103 1,1 2,1 2,3 1,1 2,2 3,2 9,11 14,15 31,15l177 0c31,0 36,-16 36,-36 0,-18 -36,-27 -36,-41 0,-44 21,-102 21,-161 99,0 198,-8 283,-65 35,-23 49,-34 74,-67 88,-117 20,-242 -176,-242l-280 0c-17,0 -42,15 -42,26z"/>
   <path class="fil0" d="M1098 5279c1,17 6,34 12,50 13,35 34,130 34,168l-187 0c21,-39 39,-77 63,-114 7,-10 9,-12 17,-24 12,-19 48,-71 61,-80zm-374 457c0,43 -11,31 161,31 21,0 21,-19 21,-31 0,-27 -37,-15 -37,-52 0,-25 39,-79 47,-114l244 0c4,51 10,58 10,125 0,33 -41,0 -41,52 0,16 15,20 31,20l182 0c22,0 36,-9 36,-31 0,-17 -29,-25 -38,-60 -9,-29 -8,-59 -15,-89l-72 -282c-14,-40 -15,-56 -39,-111 -20,-44 -20,-50 -70,-50 -45,0 -66,41 -101,86 -11,13 -18,21 -27,35l-52 73c-18,26 -33,52 -50,80 -56,95 -81,148 -129,250 -26,56 -61,40 -61,68z"/>
   <path class="fil0" d="M7745 5186c0,28 33,15 54,76 12,35 26,62 41,93 16,32 30,57 45,85 64,119 57,42 42,151 -3,27 -8,70 -20,94 -8,18 -5,12 -23,19 -86,37 -26,63 -4,63l208 0c28,0 59,-34 13,-54 -30,-13 -29,-6 -29,-44l19 -127c6,-35 8,-26 51,-74l194 -232c24,-25 48,-19 48,-61 0,-32 -87,-20 -140,-20 -23,0 -33,12 -42,26 8,33 18,19 36,46l-32 62c-16,20 -27,34 -44,54 -8,10 -12,16 -21,26 -5,6 -7,10 -11,14l-8 8c-1,1 -2,2 -2,3 -18,19 -42,34 -48,57 -23,-7 -23,-22 -35,-43 -146,-243 -27,-167 -27,-227 0,-17 -19,-26 -36,-26l-182 0c-25,0 -47,6 -47,31z"/>
   <path class="fil0" d="M7465 5181c0,70 55,-18 24,118 -4,18 -6,46 -9,68 -4,21 -8,42 -12,66 -11,60 -23,238 -55,267 -16,14 -37,19 -37,47 0,16 16,20 32,20l166 0c25,0 46,-6 46,-31 0,-23 -36,-27 -36,-41 0,-68 59,-324 68,-410 9,-90 62,-62 62,-104 0,-17 -19,-26 -36,-26l-167 0c-21,0 -46,5 -46,26z"/>
   <path class="fil0" d="M4045 5469c0,80 1,119 -12,199 -24,140 -70,262 -153,375 -79,104 -201,188 -339,188 -37,0 -70,-7 -99,-14 -116,-30 -220,-133 -282,-235 -105,-175 -143,-399 -117,-612 17,-132 59,-253 115,-346 133,-221 368,-336 596,-184 67,44 124,110 166,179 22,36 23,42 40,75 50,100 85,263 85,375zm-822 -714c-22,29 -43,59 -62,92 -5,8 -10,16 -14,24 -38,78 -52,96 -83,191 -100,299 -111,658 21,958 4,10 8,18 12,27 13,28 25,50 39,76l62 95c7,8 13,14 18,22 10,13 35,15 57,20 156,37 427,30 571,-8 15,-4 14,-3 23,-15 94,-120 152,-243 190,-395 10,-41 21,-87 26,-132 11,-100 10,-127 10,-224 0,-27 -7,-113 -11,-145 -12,-87 -29,-174 -57,-256 -28,-84 -61,-166 -107,-242l-46 -71c-3,-4 -5,-6 -8,-10 -5,-7 -4,-6 -13,-9 -40,-14 -123,-25 -168,-29 -47,-3 -97,-7 -151,-6 -55,1 -110,3 -164,9 -26,3 -51,7 -75,12 -26,4 -46,11 -70,16z"/>
   <path class="fil0" d="M3509 5826l4 -4c12,-14 35,-68 41,-84 23,-66 26,-132 10,-202 43,-3 113,-42 139,-73 17,-20 29,-44 38,-69 21,-55 23,-137 7,-194 -5,-15 -17,-59 -31,-59 -11,0 -27,3 -34,6 24,45 17,72 22,110l-1 64c-4,45 -19,86 -46,121 -30,39 -53,56 -100,67 -8,-34 -31,-83 -51,-111 -11,-16 -20,-22 -25,-29 4,-5 14,-11 24,-23 38,-48 45,-128 21,-185l-19 -35c-5,-6 -5,-4 -7,-12 28,-7 71,-43 126,-19 8,4 24,12 29,19 -19,4 -40,6 -60,1 -9,-2 -11,-6 -20,-8 7,11 34,28 51,28 65,0 81,-27 116,-16 13,4 25,18 31,30 31,61 28,277 28,364 0,90 -28,220 -71,291 -7,11 -16,27 -25,35 -28,27 -80,12 -109,-1 -17,-7 -60,-33 -86,-11l-2 -1zm63 0c14,-4 37,-24 75,-6 26,11 15,13 26,7 -3,-10 -15,-17 -23,-23l0 -272 -29 16c-10,5 -20,8 -30,14l0 232c-13,7 -24,12 -27,25l8 7zm4 -721l0 1c0,0 1,0 0,-1zm-2 -2l0 1c0,0 0,-1 0,-1zm-2 -2l0 1c0,0 0,-1 0,-1zm-2 -2l-1 1c1,0 1,-1 1,-1zm-2 -2l-1 1c0,0 1,-1 1,-1zm-2 -2l-1 1c0,-1 1,-1 1,-1zm-109 724c-5,-3 -17,-12 -17,-17l0 -272 71 2c6,22 5,70 5,97 0,43 -3,76 -14,109 -14,40 -24,50 -45,81zm-77 -732c14,-2 8,-5 35,-5 19,0 47,11 50,25 -18,0 -33,7 -61,-3l-20 -11c-6,-6 -1,0 -4,-6zm-136 -19c0,18 3,25 18,40 35,35 66,6 113,-19 4,8 2,9 9,16 22,23 64,24 94,17 3,14 8,25 11,42 6,35 9,134 -9,163 -13,20 -31,21 -40,25l0 -182c14,-9 18,-11 28,-25l-7 -8c-20,13 -20,19 -48,19 -7,0 -18,-4 -23,-7 -7,-3 -11,-8 -17,-12 -3,2 -12,9 -14,12 5,8 11,15 21,17l0 178c-10,-5 -18,-8 -28,-13 8,31 48,51 78,51 12,0 14,-2 27,-2 10,15 24,41 31,58 14,34 13,34 21,69l-69 0 0 -100c-16,3 -26,3 -42,-4 -7,-3 -12,-7 -18,-9l0 126c-12,6 -26,14 -30,29l30 -13 0 258c-11,6 -21,13 -28,23l8 9c17,-5 31,-20 68,-9 9,2 15,6 23,8 -12,18 -47,46 -78,46 -43,0 -68,-61 -117,-19 -6,5 -17,20 -19,28 12,-6 21,-13 34,-17 45,-14 39,27 111,37 46,6 77,-10 106,-46 15,-18 16,-25 30,-25 16,0 31,9 41,15 13,8 23,16 35,24 62,45 133,53 183,-14 38,-52 60,-135 71,-201 5,-38 11,-83 11,-125 0,-10 -1,-23 0,-33 1,-7 2,-8 1,-14 -2,-26 -1,-56 -1,-83l-9 -127c-6,-46 -22,-189 -83,-189 -17,0 -36,4 -48,9 -27,10 -26,16 -40,6 -22,-17 -55,-36 -88,-36 -28,0 -76,33 -107,40 -10,-15 -44,-35 -58,-35 -45,0 -112,49 -146,28 -5,-3 -10,-7 -13,-12 -4,-5 -7,-10 -11,-15 -3,-4 -12,-12 -12,1z"/>
   <path class="fil0" d="M3235 5145c2,18 23,23 23,32l0 611c0,7 -15,11 -27,29l8 9c30,-8 33,-29 99,6l8 -7c-2,-10 -10,-18 -17,-24 -13,-13 -10,-9 -10,-32l0 -595c11,-3 26,-18 31,-27l-11 -10c-38,25 -51,25 -89,0 -5,4 -7,6 -15,8z"/>
   <path class="fil0" d="M3570 5147c3,10 11,17 21,19l0 306c8,-2 10,-5 16,-10 10,-7 37,-28 41,-36 9,-18 -6,-242 4,-255 2,-3 10,-8 14,-12 5,-5 9,-8 13,-14l-7 -8c-20,13 -24,19 -50,19 -13,0 -32,-12 -37,-19 -5,3 -10,7 -15,10z"/>
   <path class="fil0" d="M3417 6087l-14 0 0 -101 21 0c24,0 35,22 35,46 0,32 -10,55 -42,55zm-44 6c0,10 13,6 38,6 20,0 36,-5 47,-16 38,-37 21,-109 -30,-109l-55 0 0 119z"/>
   <path class="fil0" d="M3635 6051l0 48 27 0 0 -48c32,-7 54,-55 55,-79l-23 0c-1,12 -7,34 -12,43 -15,33 -49,35 -65,2 -9,-17 -9,-26 -13,-45l-23 0c2,26 22,72 54,79z"/>
   <polygon class="fil0" points="3520,6099 3547,6099 3547,5974 3520,5974 "/>
   <path class="fil0" d="M3223 4755c24,-5 44,-12 70,-16 24,-5 49,-9 75,-12 54,-6 109,-8 164,-9 -5,-3 -30,-2 -39,-2l-124 8c-26,3 -111,16 -138,26l-8 5z"/>
   <path class="fil0" d="M3564 5103l2 -2c0,0 -2,1 -2,2z"/>
  </g>
 </g>
</svg>
